<svg id="visual" viewBox="0 0 900 600" width="900" height="600" xmlns="http://www.w3.org/2000/svg" xmlns:xlink="http://www.w3.org/1999/xlink" version="1.1"><rect x="0" y="0" width="900" height="600" fill="#000000"></rect><path d="M0 436L21.5 427.5C43 419 86 402 128.8 395C171.7 388 214.3 391 257.2 391C300 391 343 388 385.8 390.3C428.7 392.7 471.3 400.3 514.2 409C557 417.7 600 427.3 642.8 431.2C685.7 435 728.3 433 771.2 421.5C814 410 857 389 878.5 378.5L900 368L900 601L878.5 601C857 601 814 601 771.2 601C728.3 601 685.7 601 642.8 601C600 601 557 601 514.2 601C471.3 601 428.7 601 385.8 601C343 601 300 601 257.2 601C214.3 601 171.7 601 128.8 601C86 601 43 601 21.5 601L0 601Z" fill="#ac2b37"></path><path d="M0 466L21.5 457.2C43 448.3 86 430.7 128.8 427C171.7 423.3 214.3 433.7 257.2 432.5C300 431.3 343 418.7 385.8 423.7C428.7 428.7 471.3 451.3 514.2 453C557 454.7 600 435.3 642.8 431.3C685.7 427.3 728.3 438.7 771.2 440.2C814 441.7 857 433.3 878.5 429.2L900 425L900 601L878.5 601C857 601 814 601 771.2 601C728.3 601 685.7 601 642.8 601C600 601 557 601 514.2 601C471.3 601 428.7 601 385.8 601C343 601 300 601 257.2 601C214.3 601 171.7 601 128.8 601C86 601 43 601 21.5 601L0 601Z" fill="#bf4037"></path><path d="M0 497L21.5 489.8C43 482.7 86 468.3 128.8 460.2C171.7 452 214.3 450 257.2 448.7C300 447.3 343 446.7 385.8 456.5C428.7 466.3 471.3 486.7 514.2 495.3C557 504 600 501 642.8 499C685.7 497 728.3 496 771.2 496.2C814 496.3 857 497.7 878.5 498.3L900 499L900 601L878.5 601C857 601 814 601 771.2 601C728.3 601 685.7 601 642.8 601C600 601 557 601 514.2 601C471.3 601 428.7 601 385.8 601C343 601 300 601 257.2 601C214.3 601 171.7 601 128.8 601C86 601 43 601 21.5 601L0 601Z" fill="#d05537"></path><path d="M0 520L21.5 521.2C43 522.3 86 524.7 128.8 520.3C171.7 516 214.3 505 257.2 503.8C300 502.7 343 511.3 385.8 516.2C428.7 521 471.3 522 514.2 525.8C557 529.7 600 536.3 642.8 539.2C685.7 542 728.3 541 771.2 536.2C814 531.3 857 522.7 878.5 518.3L900 514L900 601L878.5 601C857 601 814 601 771.2 601C728.3 601 685.7 601 642.8 601C600 601 557 601 514.2 601C471.3 601 428.7 601 385.8 601C343 601 300 601 257.2 601C214.3 601 171.7 601 128.8 601C86 601 43 601 21.5 601L0 601Z" fill="#df6b36"></path><path d="M0 525L21.5 525.3C43 525.7 86 526.3 128.8 526.5C171.7 526.7 214.3 526.3 257.2 526.3C300 526.3 343 526.7 385.8 532.8C428.7 539 471.3 551 514.2 551.3C557 551.7 600 540.3 642.8 537.2C685.7 534 728.3 539 771.2 539C814 539 857 534 878.5 531.5L900 529L900 601L878.5 601C857 601 814 601 771.2 601C728.3 601 685.7 601 642.8 601C600 601 557 601 514.2 601C471.3 601 428.7 601 385.8 601C343 601 300 601 257.2 601C214.3 601 171.7 601 128.8 601C86 601 43 601 21.5 601L0 601Z" fill="#ed8136"></path></svg>